# Blender v2.93.6 OBJ File: 'tank.blend'
# www.blender.org
mtllib tank.mtl
o tank_Cube.001
v -0.859828 0.086772 0.410344
v -0.859828 0.483616 0.410344
v 0.542512 0.086772 0.410344
v 0.542512 0.483616 0.410344
v 0.720331 0.274495 0.410344
v 0.720331 0.086772 0.410344
v 0.992561 0.274495 0.410344
v 0.931165 0.086772 0.410344
v -0.961280 0.167281 0.410344
v -0.961280 0.403107 0.410344
v -0.436373 0.483616 0.211813
v -0.436373 0.875351 0.211813
v 0.345289 0.599067 0.064619
v 0.345289 0.752859 0.064619
v 0.101842 0.483616 0.292027
v 0.101842 0.875351 0.292027
v 0.345289 0.875351 0.211813
v 0.345289 0.483616 0.211813
v 0.414744 0.636018 0.027667
v 0.414744 0.715908 0.027667
v 0.414744 0.752859 0.064619
v 0.414744 0.599067 0.064619
v 1.008975 0.715908 0.027667
v 1.008975 0.636018 0.027667
v 1.031651 0.737253 0.055409
v 1.031651 0.614673 0.055409
v 1.164864 0.737253 0.055409
v 1.164864 0.614673 0.055409
v -0.891198 0.197255 0.610872
v -0.891198 0.361315 0.610872
v -0.891198 0.197255 0.410344
v -0.891198 0.361315 0.410344
v 0.891198 0.100429 0.610872
v 0.891198 0.223170 0.610872
v 0.891198 0.100429 0.410344
v 0.891198 0.223170 0.410344
v -0.399710 0.361315 0.610872
v -0.574904 0.000000 0.610872
v -0.399710 0.361315 0.410344
v -0.574904 0.000000 0.410344
v 0.696725 0.308618 0.410344
v 0.696725 0.000000 0.610872
v 0.696725 0.308618 0.610872
v 0.696725 0.000000 0.410344
v -0.859828 0.086772 -0.410344
v -0.859828 0.483616 -0.410344
v 0.542512 0.086772 -0.410344
v 0.542512 0.483616 -0.410344
v 0.720331 0.274495 -0.410344
v 0.720331 0.086772 -0.410344
v 0.992561 0.274495 -0.410344
v 0.931165 0.086772 -0.410344
v -0.961280 0.167281 -0.410344
v -0.961280 0.403107 -0.410344
v -0.436373 0.483616 -0.211813
v -0.436373 0.875351 -0.211813
v 0.345289 0.599067 -0.064619
v 0.345289 0.752859 -0.064619
v 0.101842 0.483616 -0.292027
v 0.101842 0.875351 -0.292027
v 0.345289 0.875351 -0.211813
v 0.345289 0.483616 -0.211813
v 0.414744 0.636018 -0.027667
v 0.414744 0.715908 -0.027667
v 0.414744 0.752859 -0.064619
v 0.414744 0.599067 -0.064619
v 1.008975 0.715908 -0.027667
v 1.008975 0.636018 -0.027667
v 1.031651 0.737253 -0.055409
v 1.031651 0.614673 -0.055409
v 1.164864 0.737253 -0.055409
v 1.164864 0.614673 -0.055409
v -0.891198 0.197255 -0.610872
v -0.891198 0.361315 -0.610872
v -0.891198 0.197255 -0.410344
v -0.891198 0.361315 -0.410344
v 0.891198 0.100429 -0.610872
v 0.891198 0.223170 -0.610872
v 0.891198 0.100429 -0.410344
v 0.891198 0.223170 -0.410344
v -0.399710 0.361315 -0.610872
v -0.574904 0.000000 -0.610872
v -0.399710 0.361315 -0.410344
v -0.574904 0.000000 -0.410344
v 0.696725 0.308618 -0.410344
v 0.696725 0.000000 -0.610872
v 0.696725 0.308618 -0.610872
v 0.696725 0.000000 -0.410344
v 0.070419 0.811388 0.191749
v 0.070419 0.894650 0.191749
v 0.070419 0.811388 0.047246
v 0.070419 0.894650 0.047246
v 0.214922 0.811388 0.191749
v 0.214922 0.894650 0.191749
v 0.214922 0.811388 0.047246
v 0.214922 0.894650 0.047246
v -0.314024 0.811388 0.137666
v -0.314024 0.894650 0.137666
v -0.314024 0.811388 -0.111357
v -0.314024 0.894650 -0.111357
v -0.169521 0.811388 0.137666
v -0.169521 0.894650 0.137666
v -0.169521 0.811388 -0.111357
v -0.169521 0.894650 -0.111357
v -0.068626 0.811388 -0.120332
v -0.068626 0.894650 -0.120332
v -0.068626 0.811388 -0.194316
v -0.068626 0.894650 -0.194316
v 0.023728 0.811388 -0.120332
v 0.023728 0.894650 -0.120332
v 0.023728 0.811388 -0.194316
v 0.023728 0.894650 -0.194316
vt 0.007812 0.109375
vt 0.007812 0.062500
vt 0.226562 0.062500
vt 0.226562 0.109375
vt 0.578125 0.125000
vt 0.679688 0.125000
vt 0.679688 0.500000
vt 0.578125 0.500000
vt 0.679688 0.531250
vt 0.679688 0.750000
vt 0.625000 0.750000
vt 0.625000 0.531250
vt 0.226562 0.484375
vt 0.007812 0.484375
vt 0.226562 0.507812
vt 0.007812 0.507812
vt 0.625000 0.078125
vt 0.578125 0.078125
vt 0.578125 0.023438
vt 0.625000 0.007812
vt 0.953125 0.718750
vt 0.953125 0.937500
vt 0.898438 0.937500
vt 0.898438 0.718750
vt 0.007812 0.007812
vt 0.226562 0.007812
vt 0.531250 0.750000
vt 0.531250 0.976562
vt 0.453125 0.976562
vt 0.453125 0.750000
vt 0.453125 0.375000
vt 0.453125 0.398438
vt 0.234375 0.398438
vt 0.234375 0.375000
vt 0.898438 0.710938
vt 0.898438 0.492188
vt 0.960938 0.492188
vt 0.960938 0.710938
vt 0.656250 0.523438
vt 0.593750 0.523438
vt 0.484375 0.531250
vt 0.593750 0.531250
vt 0.617188 0.601562
vt 0.460938 0.601562
vt 0.218750 0.875000
vt 0.117188 0.875000
vt 0.117188 0.726562
vt 0.218750 0.726562
vt 0.609375 0.953125
vt 0.578125 0.992188
vt 0.578125 0.882812
vt 0.609375 0.921875
vt 0.156250 0.578125
vt 0.007812 0.578125
vt 0.023438 0.515625
vt 0.140625 0.515625
vt 0.593750 0.742188
vt 0.484375 0.742188
vt 0.140625 0.726562
vt 0.023438 0.726562
vt 0.679688 0.757812
vt 0.679688 0.875000
vt 0.578125 0.875000
vt 0.578125 0.757812
vt 0.218750 0.945312
vt 0.117188 0.945312
vt 0.679688 0.882812
vt 0.679688 0.992188
vt 0.648438 0.953125
vt 0.648438 0.921875
vt 0.437500 0.945312
vt 0.437500 0.976562
vt 0.421875 0.976562
vt 0.421875 0.945312
vt 0.210938 0.515625
vt 0.218750 0.515625
vt 0.218750 0.671875
vt 0.210938 0.671875
vt 0.960938 0.882812
vt 0.976562 0.882812
vt 0.976562 0.921875
vt 0.960938 0.921875
vt 0.921875 0.976562
vt 0.929688 0.984375
vt 0.898438 0.984375
vt 0.906250 0.976562
vt 0.421875 0.937500
vt 0.421875 0.890625
vt 0.437500 0.890625
vt 0.437500 0.937500
vt 0.898438 0.945312
vt 0.929688 0.945312
vt 0.921875 0.953125
vt 0.906250 0.953125
vt 0.187500 0.515625
vt 0.187500 0.671875
vt 0.179688 0.671875
vt 0.179688 0.515625
vt 0.109375 0.976562
vt 0.109375 0.960938
vt 0.117188 0.953125
vt 0.117188 0.984375
vt 0.976562 0.875000
vt 0.960938 0.875000
vt 0.960938 0.718750
vt 0.976562 0.718750
vt 0.085938 0.984375
vt 0.093750 0.976562
vt 0.945312 0.945312
vt 0.976562 0.945312
vt 0.976562 0.976562
vt 0.945312 0.976562
vt 0.195312 0.679688
vt 0.171875 0.679688
vt 0.125000 0.953125
vt 0.156250 0.953125
vt 0.156250 0.984375
vt 0.125000 0.984375
vt 0.046875 0.953125
vt 0.078125 0.953125
vt 0.078125 0.984375
vt 0.046875 0.984375
vt 0.195312 0.718750
vt 0.171875 0.718750
vt 0.273438 0.945312
vt 0.234375 0.945312
vt 0.234375 0.890625
vt 0.273438 0.890625
vt 0.687500 0.429688
vt 0.773438 0.429688
vt 0.750000 0.476562
vt 0.718750 0.476562
vt 0.414062 0.945312
vt 0.382812 0.945312
vt 0.382812 0.890625
vt 0.414062 0.890625
vt 0.335938 0.804688
vt 0.429688 0.757812
vt 0.429688 0.882812
vt 0.390625 0.882812
vt 0.812500 0.539062
vt 0.812500 0.484375
vt 0.867188 0.484375
vt 0.867188 0.539062
vt 0.953125 0.351562
vt 0.953125 0.476562
vt 0.898438 0.476562
vt 0.898438 0.351562
vt 0.953125 0.054688
vt 0.898438 0.054688
vt 0.812500 0.960938
vt 0.812500 0.875000
vt 0.867188 0.875000
vt 0.867188 0.960938
vt 0.335938 0.460938
vt 0.421875 0.460938
vt 0.742188 0.007812
vt 0.789062 0.007812
vt 0.789062 0.132812
vt 0.687500 0.085938
vt 0.367188 0.414062
vt 0.398438 0.414062
vt 0.953125 0.007812
vt 0.898438 0.007812
vt 0.460938 0.406250
vt 0.460938 0.031250
vt 0.562500 0.031250
vt 0.562500 0.406250
vt 0.507812 0.453125
vt 0.507812 0.523438
vt 0.460938 0.507812
vt 0.460938 0.453125
vt 0.484375 0.007812
vt 0.546875 0.007812
vt 0.109375 0.796875
vt 0.109375 0.945312
vt 0.007812 0.945312
vt 0.007812 0.796875
vt 0.109375 0.734375
vt 0.007812 0.734375
vt 0.554688 0.960938
vt 0.539062 0.960938
vt 0.539062 0.914062
vt 0.554688 0.914062
vt 0.085938 0.953125
vt 0.093750 0.960938
vt 0.554688 0.750000
vt 0.554688 0.906250
vt 0.539062 0.906250
vt 0.539062 0.750000
vt 0.007812 0.984375
vt 0.007812 0.953125
vt 0.039062 0.953125
vt 0.039062 0.984375
vt 0.328125 0.890625
vt 0.328125 0.945312
vt 0.281250 0.945312
vt 0.281250 0.890625
vt 0.796875 0.054688
vt 0.820312 0.007812
vt 0.851562 0.007812
vt 0.875000 0.054688
vt 0.367188 0.890625
vt 0.367188 0.945312
vt 0.335938 0.945312
vt 0.335938 0.890625
vt 0.328125 0.804688
vt 0.273438 0.882812
vt 0.234375 0.882812
vt 0.234375 0.757812
vt 0.804688 0.539062
vt 0.750000 0.539062
vt 0.750000 0.484375
vt 0.804688 0.484375
vt 0.687500 0.835938
vt 0.742188 0.835938
vt 0.742188 0.960938
vt 0.687500 0.960938
vt 0.687500 0.539062
vt 0.742188 0.539062
vt 0.804688 0.960938
vt 0.750000 0.960938
vt 0.750000 0.875000
vt 0.804688 0.875000
vt 0.328125 0.460938
vt 0.250000 0.460938
vt 0.843750 0.476562
vt 0.796875 0.390625
vt 0.890625 0.351562
vt 0.890625 0.476562
vt 0.304688 0.414062
vt 0.265625 0.414062
vt 0.687500 0.484375
vt 0.742188 0.484375
vt 0.234375 -0.000000
vt 0.453125 -0.000000
vt 0.210938 0.953125
vt 0.218750 0.953125
vt 0.218750 0.960938
vt 0.210938 0.960938
vt 0.218750 0.968750
vt 0.210938 0.968750
vt 0.218750 0.976562
vt 0.210938 0.976562
vt 0.218750 0.992188
vt 0.210938 0.992188
vt 0.203125 0.968750
vt 0.203125 0.976562
vt 0.226562 0.968750
vt 0.226562 0.976562
vt 0.171875 0.953125
vt 0.179688 0.953125
vt 0.179688 0.960938
vt 0.171875 0.960938
vt 0.179688 0.968750
vt 0.171875 0.968750
vt 0.179688 0.976562
vt 0.171875 0.976562
vt 0.179688 0.992188
vt 0.171875 0.992188
vt 0.164062 0.968750
vt 0.164062 0.976562
vt 0.195312 0.968750
vt 0.195312 0.976562
vt 0.234375 0.976562
vt 0.234375 0.960938
vt 0.250000 0.960938
vt 0.250000 0.976562
vt 0.265625 0.960938
vt 0.265625 0.976562
vt 0.273438 0.960938
vt 0.273438 0.976562
vt 0.296875 0.960938
vt 0.296875 0.976562
vt 0.265625 0.992188
vt 0.273438 0.992188
vt 0.265625 0.953125
vt 0.273438 0.953125
vn 0.0000 -1.0000 0.0000
vn 0.0000 0.0000 1.0000
vn 0.7618 0.6478 0.0000
vn -0.6216 -0.7833 0.0000
vn 0.9505 -0.3109 0.0000
vn 0.0000 1.0000 0.0000
vn -0.6216 0.7833 0.0000
vn -1.0000 0.0000 0.0000
vn -0.1474 0.0000 0.9891
vn 1.0000 -0.0000 0.0000
vn 0.3129 0.0000 0.9498
vn -0.7743 0.0000 0.6329
vn -0.6854 0.7281 0.0000
vn -0.6854 -0.7281 0.0000
vn 0.0000 0.0000 -1.0000
vn 0.4588 -0.8885 0.0000
vn 0.0480 0.9988 0.0000
vn -0.5292 -0.8485 0.0000
vn 0.4023 0.9155 0.0000
vn -0.1474 0.0000 -0.9891
vn 0.3129 0.0000 -0.9498
vn -0.7743 0.0000 -0.6329
usemtl Material.002
s off
f 47/1/1 50/2/1 6/3/1 3/4/1
f 3/5/2 4/6/2 2/7/2 1/8/2
f 5/9/3 49/10/3 48/11/3 4/12/3
f 1/13/1 45/14/1 47/1/1 3/4/1
f 9/15/4 53/16/4 45/14/4 1/13/4
f 5/17/2 6/18/2 8/19/2 7/20/2
f 8/21/5 52/22/5 51/23/5 7/24/5
f 4/6/2 3/5/2 6/18/2 5/17/2
f 50/2/1 52/25/1 8/26/1 6/3/1
f 7/27/6 51/28/6 49/29/6 5/30/6
f 46/31/7 54/32/7 10/33/7 2/34/7
f 10/35/8 54/36/8 53/37/8 9/38/8
f 1/8/2 2/7/2 10/39/2 9/40/2
f 17/41/6 61/42/6 60/43/6 16/44/6
f 15/45/9 16/46/9 12/47/9 11/48/9
f 58/49/10 61/50/10 17/51/10 14/52/10
f 15/53/1 59/54/1 62/55/1 18/56/1
f 16/44/6 60/43/6 56/57/6 12/58/6
f 11/59/1 55/60/1 59/54/1 15/53/1
f 55/61/8 11/62/8 12/63/8 56/64/8
f 18/65/11 17/66/11 16/46/11 15/45/11
f 18/67/10 62/68/10 57/69/10 13/70/10
f 13/70/10 14/52/10 17/51/10 18/67/10
f 21/71/6 65/72/6 58/73/6 14/74/6
f 23/75/6 67/76/6 64/77/6 20/78/6
f 57/79/1 66/80/1 22/81/1 13/82/1
f 64/83/10 65/84/10 21/85/10 20/86/10
f 14/87/2 13/88/2 22/89/2 21/90/2
f 22/91/10 66/92/10 63/93/10 19/94/10
f 63/95/1 68/96/1 24/97/1 19/98/1
f 19/94/10 20/86/10 21/85/10 22/91/10
f 23/99/12 24/100/12 26/101/12 25/102/12
f 20/103/2 19/104/2 24/105/2 23/106/2
f 25/102/13 69/107/13 67/108/13 23/99/13
f 25/109/2 26/110/2 28/111/2 27/112/2
f 68/96/14 70/113/14 26/114/14 24/97/14
f 28/115/10 72/116/10 71/117/10 27/118/10
f 27/119/6 71/120/6 69/121/6 25/122/6
f 70/113/1 72/123/1 28/124/1 26/114/1
f 29/125/8 30/126/8 32/127/8 31/128/8
f 44/129/15 41/130/15 36/131/15 35/132/15
f 35/133/10 36/134/10 34/135/10 33/136/10
f 38/137/2 37/138/2 30/139/2 29/140/2
f 44/141/16 35/142/16 33/143/16 42/144/16
f 39/145/6 32/146/6 30/147/6 37/148/6
f 41/149/17 39/145/17 37/148/17 43/150/17
f 31/151/18 40/152/18 38/153/18 29/154/18
f 42/155/2 43/156/2 37/138/2 38/137/2
f 31/157/15 32/158/15 39/159/15 40/160/15
f 33/161/2 34/162/2 43/156/2 42/155/2
f 36/163/19 41/149/19 43/150/19 34/164/19
f 40/152/1 44/141/1 42/144/1 38/153/1
f 40/160/15 39/159/15 41/130/15 44/129/15
f 47/165/15 45/166/15 46/167/15 48/168/15
f 49/169/15 51/170/15 52/171/15 50/172/15
f 48/168/15 49/169/15 50/172/15 47/165/15
f 45/166/15 53/173/15 54/174/15 46/167/15
f 59/175/20 55/176/20 56/177/20 60/178/20
f 62/179/21 59/175/21 60/178/21 61/180/21
f 57/69/10 62/68/10 61/50/10 58/49/10
f 58/181/15 65/182/15 66/183/15 57/184/15
f 63/93/10 66/92/10 65/84/10 64/83/10
f 67/108/22 69/107/22 70/185/22 68/186/22
f 64/187/15 67/188/15 68/189/15 63/190/15
f 69/191/15 71/192/15 72/193/15 70/194/15
f 73/195/8 75/196/8 76/197/8 74/198/8
f 88/199/2 79/200/2 80/201/2 85/202/2
f 79/203/10 77/204/10 78/205/10 80/206/10
f 82/207/15 73/208/15 74/209/15 81/210/15
f 88/211/16 86/212/16 77/213/16 79/214/16
f 83/215/6 81/216/6 74/217/6 76/218/6
f 85/219/17 87/220/17 81/216/17 83/215/17
f 75/221/18 73/222/18 82/223/18 84/224/18
f 86/225/15 82/207/15 81/210/15 87/226/15
f 75/227/2 84/228/2 83/229/2 76/230/2
f 77/231/15 86/225/15 87/226/15 78/232/15
f 80/233/19 78/234/19 87/220/19 85/219/19
f 84/224/1 82/223/1 86/212/1 88/211/1
f 84/228/2 88/199/2 85/202/2 83/229/2
f 4/235/6 48/236/6 46/31/6 2/34/6
f 89/237/8 90/238/8 92/239/8 91/240/8
f 91/240/15 92/239/15 96/241/15 95/242/15
f 95/242/10 96/241/10 94/243/10 93/244/10
f 93/244/2 94/243/2 90/245/2 89/246/2
f 91/247/1 95/242/1 93/244/1 89/248/1
f 96/241/6 92/249/6 90/250/6 94/243/6
f 97/251/8 98/252/8 100/253/8 99/254/8
f 99/254/15 100/253/15 104/255/15 103/256/15
f 103/256/10 104/255/10 102/257/10 101/258/10
f 101/258/2 102/257/2 98/259/2 97/260/2
f 99/261/1 103/256/1 101/258/1 97/262/1
f 104/255/6 100/263/6 98/264/6 102/257/6
f 105/265/8 106/266/8 108/267/8 107/268/8
f 107/268/15 108/267/15 112/269/15 111/270/15
f 111/270/10 112/269/10 110/271/10 109/272/10
f 109/272/2 110/271/2 106/273/2 105/274/2
f 107/275/1 111/270/1 109/272/1 105/276/1
f 112/269/6 108/277/6 106/278/6 110/271/6
